#!OML:ASF E:\Mandelcareful walks\Project 1\Capture day 1\Session 1\Subject1.ASF
:FULLY-SPECIFIED
:DEGREES
135
root -26.27 14.5714 0.420065 -319.177 71.5531 -339.687
lowerback 32.9562 0.537827 -1.26969
upperback 9.27893 0.825214 -2.88255
thorax -6.66082 0.774541 -2.67124
lowerneck -36.3962 11.8433 6.65103
upperneck 21.4976 20.325 -20.0806
head 17.0982 6.31212 -4.45412
rclavicle -3.49861e-014 4.6118e-014
rhumerus -16.9033 -3.73851 -86.0277
rradius 33.697
rwrist -56.7999
rhand 18.9463 -40.6662
rfingers 7.12502
rthumb 43.5523 -64.7141
lclavicle -3.49861e-014 4.6118e-014
lhumerus 66.3961 -82.5469 29.6107
lradius 53.5249
lwrist 0.912207
lhand -21.0783 -26.2779
lfingers 7.12502
lthumb 5.29872 3.63585
rfemur -48.4693 -16.9723 1.46714
rtibia 64.9687
rfoot -29.4009 -10.1313
rtoes -20.1658
lfemur -66.9222 13.1489 -22.1298
ltibia 59.2167
lfoot -9.02189 5.44121
ltoes -13.1006
136
root -26.1097 14.5877 0.327491 -319.482 71.8292 -340.049
lowerback 33.2904 1.20435 -0.872359
upperback 8.1902 1.64229 -2.95154
thorax -7.94034 1.1078 -3.27642
lowerneck -32.825 10.7584 5.28808
upperneck 21.6643 19.3537 -19.4494
head 16.0248 6.12656 -4.28797
rclavicle 1.59028e-014 2.70347e-014
rhumerus -19.7971 -6.03118 -84.9675
rradius 33.3505
rwrist -55.4603
rhand 18.6757 -40.4207
rfingers 7.12502
rthumb 43.2995 -64.56
lclavicle 1.59028e-014 2.70347e-014
lhumerus 76.2738 -84.9869 20.8304
lradius 52.8047
lwrist 0.648807
lhand -19.4056 -25.5455
lfingers 7.12502
lthumb 6.91365 4.32158
rfemur -47.3793 -16.0913 0.929645
rtibia 64.3063
rfoot -29.6636 -11.8965
rtoes -21.6251
lfemur -66.919 12.869 -22.3
ltibia 60.1114
lfoot -9.82802 5.19354
ltoes -13.0076
137
root -25.953 14.6163 0.23943 -319.92 72.3038 -340.691
lowerback 33.4282 1.40572 -1.07828
upperback 7.72024 1.75566 -3.15574
thorax -8.50298 1.14335 -3.4417
lowerneck -31.3272 10.915 5.27538
upperneck 21.5069 19.5034 -19.2914
head 15.6401 6.31867 -4.19428
rclavicle 3.69739e-014 7.15625e-015
rhumerus -20.4952 -7.04959 -85.0709
rradius 32.2691
rwrist -53.8189
rhand 18.4974 -39.8847
rfingers 7.12502
rthumb 43.1328 -64.0836
lclavicle 3.69739e-014 7.15625e-015
lhumerus 78.7107 -85.3738 18.4787
lradius 52.2018
lwrist 0.447918
lhand -17.6892 -24.7323
lfingers 7.12502
lthumb 8.57032 5.07374
rfemur -46.4379 -15.1852 0.75779
rtibia 63.5749
rfoot -29.4444 -14.3629
rtoes -24.14
lfemur -66.9877 12.6081 -22.4206
ltibia 60.8025
lfoot -10.7086 4.96066
ltoes -12.714
138
root -25.8017 14.642 0.154945 -320.215 72.8282 -341.213
lowerback 33.5606 1.72823 -0.818212
upperback 7.59238 2.18403 -3.67392
thorax -8.65687 1.34238 -4.29707
lowerneck -31.4854 11.0127 5.71344
upperneck 21.941 19.4195 -18.9678
head 15.8436 6.31504 -4.16951
rclavicle 1.51076e-014 -4.53229e-014
rhumerus -20.4117 -9.44151 -85.3981
rradius 30.9357
rwrist -51.8877
rhand 18.5951 -39.2561
rfingers 7.12502
rthumb 43.2241 -63.4223
lclavicle 1.51076e-014 -4.53229e-014
lhumerus 101.4 -85.0481 -4.38163
lradius 51.9119
lwrist 1.85558
lhand -16.7026 -23.5552
lfingers 7.12502
lthumb 9.52226 6.20964
rfemur -45.4802 -14.283 0.608373
rtibia 62.8793
rfoot -29.3803 -16.3305
rtoes -24.8099
lfemur -67.0389 12.3525 -22.5998
ltibia 61.3188
lfoot -11.5211 4.71848
ltoes -12.6306
139
root -25.6525 14.6627 0.0782279 -320.22 73.2982 -341.311
lowerback 33.5962 1.85642 -1.32757
upperback 7.54814 2.18249 -3.59941
thorax -8.72993 1.34693 -3.94793
lowerneck -31.2366 11.3185 5.11018
upperneck 21.6876 20.0604 -18.867
head 15.6903 6.57992 -3.84693
rclavicle -7.95139e-016 3.77691e-014
rhumerus -19.9955 -9.6935 -85.3197
rradius 29.51
rwrist -50.2514
rhand 18.6154 -38.747
rfingers 7.12502
rthumb 43.2431 -62.9064
lclavicle -7.95139e-016 3.77691e-014
lhumerus 92.1845 -84.8808 5.36786
lradius 51.052
lwrist 0.991747
lhand -13.8241 -22.5156
lfingers 7.12502
lthumb 12.2987 7.10273
rfemur -44.3383 -13.2232 0.260285
rtibia 62.1843
rfoot -29.7507 -17.8113
rtoes -23.9217
lfemur -66.8692 12.0484 -22.8358
ltibia 61.6858
lfoot -12.1536 4.47802
ltoes -11.883
140
root -25.5043 14.6875 0.00763414 -320.25 74.003 -341.375
lowerback 33.5394 1.94796 -1.35764
upperback 7.62068 2.30048 -3.6308
thorax -8.62157 1.40896 -4.00398
lowerneck -31.0883 11.3948 4.81938
upperneck 21.331 20.2175 -18.8642
head 15.4875 6.66206 -3.74503
rclavicle -1.31198e-014 4.05521e-014
rhumerus -19.5827 -10.545 -85.3431
rradius 28.2053
rwrist -48.5441
rhand 18.6048 -38.2371
rfingers 7.12502
rthumb 43.2332 -62.4001
lclavicle -1.31198e-014 4.05521e-014
lhumerus 93.9554 -84.51 4.01788
lradius 50.3058
lwrist 0.0274267
lhand -11.5529 -21.3243
lfingers 7.12502
lthumb 14.4878 8.14992
rfemur -43.1147 -12.2411 0.150068
rtibia 61.4552
rfoot -30.0676 -19.4664
rtoes -22.6898
lfemur -66.5895 11.6029 -22.9059
ltibia 61.9598
lfoot -12.5888 4.18966
ltoes -11.4939
141
root -25.3631 14.7152 -0.0572985 -319.762 74.8596 -340.979
lowerback 33.4831 1.99392 -1.20369
upperback 7.63523 2.41455 -3.68449
thorax -8.57318 1.46466 -4.1827
lowerneck -31.186 11.5125 4.97809
upperneck 21.2261 20.3731 -19.066
head 15.5393 6.71833 -3.80337
rclavicle -2.3059e-014 -7.55382e-015
rhumerus -19.1437 -11.8425 -85.3229
rradius 26.7255
rwrist -46.6267
rhand 18.6158 -37.5208
rfingers 7.12502
rthumb 43.2435 -61.6802
lclavicle -2.3059e-014 -7.55382e-015
lhumerus 114.641 -83.5845 -16.6364
lradius 50.1472
lwrist 4.22282
lhand -14.0367 -19.2897
lfingers 7.12502
lthumb 12.0937 10.3408
rfemur -42.0139 -11.555 0.213967
rtibia 60.7013
rfoot -30.2985 -21.2274
rtoes -20.9385
lfemur -66.3958 10.9695 -22.9841
ltibia 62.1653
lfoot -13.1217 3.91501
ltoes -12.6289
142
root -25.2298 14.7403 -0.117637 -318.83 75.6325 -340.183
lowerback 33.5285 2.0741 -1.19368
upperback 7.53411 2.51349 -3.67859
thorax -8.69608 1.50778 -4.22413
lowerneck -31.481 11.6992 5.13077
upperneck 21.418 20.6701 -19.1561
head 15.7675 6.80889 -3.78257
rclavicle 1.70955e-014 -5.40694e-014
rhumerus -18.8148 -13.1675 -85.176
rradius 25.3157
rwrist -44.7621
rhand 18.6909 -37.0759
rfingers 7.12502
rthumb 43.3137 -61.21
lclavicle 1.70955e-014 -5.40694e-014
lhumerus 123.135 -82.8312 -24.9941
lradius 49.7801
lwrist 6.38224
lhand -14.6097 -18.0938
lfingers 7.12502
lthumb 11.5411 11.5684
rfemur -41.1194 -11.0297 0.291145
rtibia 59.9983
rfoot -30.5639 -22.7755
rtoes -18.4461
lfemur -66.2489 10.3119 -23.1558
ltibia 62.291
lfoot -13.6198 3.62151
ltoes -14.3123
143
root -25.1026 14.7652 -0.174592 -318.242 76.3452 -339.698
lowerback 33.4034 2.09446 -0.993225
upperback 7.57486 2.61407 -3.72369
thorax -8.59126 1.55722 -4.4096
lowerneck -31.5442 11.7534 5.36683
upperneck 21.2671 20.6794 -19.3586
head 15.7793 6.81584 -3.89297
rclavicle -4.8901e-014 -2.82274e-014
rhumerus -18.467 -14.2445 -85.1531
rradius 24.3843
rwrist -43.2671
rhand 18.4498 -37.4407
rfingers 7.12502
rthumb 43.0883 -61.6553
lclavicle -4.8901e-014 -2.82274e-014
lhumerus 117.875 -82.9734 -19.4494
lradius 48.5589
lwrist 3.03772
lhand -11.0661 -20.0246
lfingers 7.12502
lthumb 14.9568 9.41528
rfemur -40.4105 -10.5766 0.569687
rtibia 59.4273
rfoot -30.6054 -24.3282
rtoes -15.9531
lfemur -65.9982 9.74899 -23.2292
ltibia 62.3442
lfoot -13.9353 3.38382
ltoes -15.278
144
root -24.981 14.7976 -0.228766 -317.687 76.9425 -339.168
lowerback 33.4666 2.13913 -0.847897
upperback 7.50866 2.71402 -3.73066
thorax -8.6781 1.60021 -4.53684
lowerneck -31.4441 11.7469 5.53529
upperneck 21.1372 20.6274 -19.5254
head 15.7437 6.80682 -3.99961
rclavicle 4.21423e-014 -2.0276e-014
rhumerus -18.1631 -15.5386 -85.0218
rradius 23.2932
rwrist -41.6396
rhand 17.5877 -37.7481
rfingers 7.12502
rthumb 42.2816 -62.2431
lclavicle 4.21423e-014 -2.0276e-014
lhumerus 123.854 -82.2406 -25.451
lradius 48.0759
lwrist 3.69923
lhand -11.5482 -20.5001
lfingers 7.12502
lthumb 14.4923 8.97377
rfemur -39.8618 -10.3203 0.919908
rtibia 58.9964
rfoot -30.4089 -26.0284
rtoes -14.3097
lfemur -65.5691 9.18195 -23.2809
ltibia 62.3611
lfoot -14.4813 3.33737
ltoes -15.0519
145
root -24.8637 14.8286 -0.279673 -316.998 77.363 -338.525
lowerback 33.5585 2.26207 -0.837428
upperback 7.38876 2.86107 -3.71983
thorax -8.83582 1.66259 -4.59398
lowerneck -31.491 11.6954 5.54474
upperneck 21.0632 20.5188 -19.4981
head 15.6971 6.7705 -4.01532
rclavicle -1.03368e-014 -2.8625e-014
rhumerus -17.681 -17.862 -84.6928
rradius 21.6769
rwrist -38.9531
rhand 17.2068 -37.3089
rfingers 7.12502
rthumb 41.9246 -61.9241
lclavicle -1.03368e-014 -2.8625e-014
lhumerus 130.248 -81.1235 -31.9144
lradius 48.1148
lwrist 4.61993
lhand -11.7199 -19.0898
lfingers 7.12502
lthumb 14.3269 10.3959
rfemur -39.5501 -10.281 1.22913
rtibia 58.7772
rfoot -30.4449 -27.3661
rtoes -11.8659
lfemur -65.1537 8.61203 -23.3494
ltibia 62.4138
lfoot -15.2146 3.33614
ltoes -13.8267
146
root -24.749 14.8451 -0.325374 -316.464 77.6829 -338.075
lowerback 33.2523 2.30242 -0.659051
upperback 7.52642 2.98113 -3.85873
thorax -8.54848 1.72831 -4.86166
lowerneck -31.7518 11.6393 5.58704
upperneck 20.8813 20.28 -19.3156
head 15.5957 6.69205 -3.99958
rclavicle -3.26007e-014 1.59028e-015
rhumerus -16.8394 -20.7973 -84.4928
rradius 19.9902
rwrist -35.344
rhand 18.0345 -36.6133
rfingers 7.12502
rthumb 42.6999 -60.9644
lclavicle -3.26007e-014 1.59028e-015
lhumerus 132.345 -80.2504 -34.2027
lradius 48.0491
lwrist 4.7786
lhand -11.3483 -18.4514
lfingers 7.12502
lthumb 14.685 11.0086
rfemur -39.4253 -10.3374 1.5544
rtibia 58.7622
rfoot -31.0106 -28.0245
rtoes -7.53033
lfemur -64.867 8.17995 -23.4069
ltibia 62.5149
lfoot -15.7376 3.21671
ltoes -12.6246
147
root -24.6415 14.854 -0.367314 -316.174 77.8918 -337.888
lowerback 32.9584 2.34488 -0.602415
upperback 7.59764 3.05999 -3.93025
thorax -8.34683 1.77089 -4.9801
lowerneck -31.8706 11.5848 5.59255
upperneck 20.7279 20.0759 -19.1388
head 15.4829 6.6317 -3.97531
rclavicle -4.25399e-014 9.78021e-014
rhumerus -16.254 -23.092 -84.1744
rradius 18.5381
rwrist -32.0839
rhand 19.2379 -35.7086
rfingers 7.12502
rthumb 43.8245 -59.6567
lclavicle -4.25399e-014 9.78021e-014
lhumerus 131.462 -80.2198 -33.3608
lradius 47.9152
lwrist 3.71319
lhand -10.133 -18.5701
lfingers 7.12502
lthumb 15.8555 10.8007
rfemur -39.5103 -10.3867 1.87149
rtibia 58.8149
rfoot -31.545 -28.5683
rtoes -3.21915
lfemur -64.6436 7.96319 -23.5455
ltibia 62.5674
lfoot -16.0811 3.11784
ltoes -12.3089
148
root -24.5389 14.8801 -0.404729 -316.258 77.911 -337.845
lowerback 32.9654 2.44304 -0.786947
upperback 7.61553 3.12866 -3.90845
thorax -8.33145 1.8066 -4.88208
lowerneck -31.8259 11.5114 5.44592
upperneck 20.5631 19.9225 -18.9626
head 15.3256 6.59328 -3.91627
rclavicle -5.96354e-015 -6.12257e-014
rhumerus -15.9032 -24.7489 -83.7968
rradius 17.5295
rwrist -29.4885
rhand 20.1498 -35.3155
rfingers 7.12502
rthumb 44.6746 -58.9421
lclavicle -5.96354e-015 -6.12257e-014
lhumerus 132.663 -79.9294 -34.6476
lradius 48.1617
lwrist 4.48759
lhand -10.2832 -18.0272
lfingers 7.12502
lthumb 15.7109 11.355
rfemur -39.4888 -10.3497 2.09513
rtibia 58.8707
rfoot -31.5413 -29.6543
rtoes 0.139223
lfemur -64.0419 7.93257 -23.7649
ltibia 62.5394
lfoot -16.5153 3.08877
ltoes -12.173
149
root -24.4383 14.9384 -0.435124 -316.514 77.8787 -337.56
lowerback 33.4795 2.54752 -1.08614
upperback 7.64238 3.1685 -3.83246
thorax -8.5088 1.83173 -4.67838
lowerneck -31.7022 11.4002 5.31371
upperneck 20.4174 19.7081 -18.7709
head 15.1531 6.53581 -3.87268
rclavicle -5.1684e-015 -2.38542e-014
rhumerus -15.7362 -25.668 -83.5376
rradius 17.0755
rwrist -27.9226
rhand 20.6641 -35.4705
rfingers 7.12502
rthumb 45.1532 -58.9095
lclavicle -5.1684e-015 -2.38542e-014
lhumerus 133.726 -79.8561 -35.7638
lradius 48.3222
lwrist 5.23256
lhand -10.5964 -17.7803
lfingers 7.12502
lthumb 15.4093 11.6254
rfemur -38.8514 -10.2485 2.21063
rtibia 58.7591
rfoot -31.3142 -30.9073
rtoes 2.87386
lfemur -62.7969 7.97377 -23.9681
ltibia 62.3353
lfoot -17.0319 2.92923
ltoes -11.2005
